HIERARCHY
ROOT Hips
{
    OFFSET 0.000000 0.000000 0.000000
    CHANNELS 6 Xposition Yposition Zposition Zrotation Xrotation Yrotation
    JOINT Spine
    {
        OFFSET -0.000000 14.517291 0.000000
        CHANNELS 3 Zrotation Xrotation Yrotation
        JOINT Spine1
        {
            OFFSET -0.000000 37.558300 0.000000
            CHANNELS 3 Zrotation Xrotation Yrotation
            JOINT Neck
            {
                OFFSET -0.000000 37.404057 3.400369
                CHANNELS 3 Zrotation Xrotation Yrotation
                JOINT Head
                {
                    OFFSET -0.000000 24.785618 -3.540803
                    CHANNELS 3 Zrotation Xrotation Yrotation
                    End Site
                    {
                        OFFSET -0.000000 35.408028 0.000000
                    }
                }
            }
            JOINT LeftShoulder
            {
                OFFSET 6.992933 33.973492 -0.192664
                CHANNELS 3 Zrotation Xrotation Yrotation
                JOINT LeftArm
                {
                    OFFSET 21.527611 0.000000 0.000000
                    CHANNELS 3 Zrotation Xrotation Yrotation
                    JOINT LeftForeArm
                    {
                        OFFSET 56.353916 0.000000 0.000000
                        CHANNELS 3 Zrotation Xrotation Yrotation
                        JOINT LeftHand
                        {
                            OFFSET 47.774071 0.000000 0.000000
                            CHANNELS 3 Zrotation Xrotation Yrotation
                            End Site
                            {
                                OFFSET 26.556021 0.000000 0.000000
                            }
                        }
                    }
                }
            }
            JOINT RightShoulder
            {
                OFFSET -7.065357 33.973492 -0.192664
                CHANNELS 3 Zrotation Xrotation Yrotation
                JOINT RightArm
                {
                    OFFSET -21.527611 0.000000 0.000000
                    CHANNELS 3 Zrotation Xrotation Yrotation
                    JOINT RightForeArm
                    {
                        OFFSET -56.353916 0.000000 0.000000
                        CHANNELS 3 Zrotation Xrotation Yrotation
                        JOINT RightHand
                        {
                            OFFSET -47.774071 0.000000 0.000000
                            CHANNELS 3 Zrotation Xrotation Yrotation
                            End Site
                            {
                                OFFSET -26.556021 0.000000 0.000000
                            }
                        }
                    }
                }
            }
        }
    }
    JOINT LeftUpLeg
    {
        OFFSET 17.704014 0.000000 0.000000
        CHANNELS 3 Zrotation Xrotation Yrotation
        JOINT LeftLeg
        {
            OFFSET -0.000000 -81.181816 0.000000
            CHANNELS 3 Zrotation Xrotation Yrotation
            JOINT LeftFoot
            {
                OFFSET -0.000000 -62.821102 0.000000
                CHANNELS 3 Zrotation Xrotation Yrotation
                JOINT LeftToeBase
                {
                    OFFSET -0.000000 -11.507608 26.556021
                    CHANNELS 3 Zrotation Xrotation Yrotation
                    End Site
                    {
                        OFFSET -0.000000 0.000000 7.081605
                    }
                }
            }
        }
    }
    JOINT RightUpLeg
    {
        OFFSET -17.704014 0.000000 0.000000
        CHANNELS 3 Zrotation Xrotation Yrotation
        JOINT RightLeg
        {
            OFFSET -0.000000 -81.181816 0.000000
            CHANNELS 3 Zrotation Xrotation Yrotation
            JOINT RightFoot
            {
                OFFSET -0.000000 -62.821102 0.000000
                CHANNELS 3 Zrotation Xrotation Yrotation
                JOINT RightToeBase
                {
                    OFFSET -0.000000 -11.507608 26.556021
                    CHANNELS 3 Zrotation Xrotation Yrotation
                    End Site
                    {
                        OFFSET -0.000000 0.000000 7.081605
                    }
                }
            }
        }
    }
}
MOTION
Frames:    12
Frame Time:    0.008333
-1.292770    158.959534    -27.334925    1.148259    -2.305928    -25.559185    1.007857    -2.706767    1.834650    -0.905008    2.137792    0.618467    10.669971    -0.691819    10.037158    -2.684321    3.744578    8.497533    1.258326    8.696826    -12.882989    -32.926201    0.517497    -48.042366    43.328316    -48.775269    -40.305191    -24.806944    -28.850492    -39.421707    -4.375448    6.908254    -2.889377    38.669949    11.171691    70.318901    0.281138    -10.831215    107.999809    5.231205    -10.451036    16.861149    11.643722    -12.765543    -3.445653    -8.384661    4.890124    6.214873    -7.426257    8.842613    22.396896    0.000000    0.000000    0.000000    -9.265986    11.527979    -3.476068    5.359206    11.720181    -0.521112    2.805794    -18.818439    -23.187965    0.000000    0.000000    0.000000    
-1.313388    158.959641    -27.337503    1.150475    -2.308212    -25.564617    1.157422    -2.112799    1.630338    -1.022742    1.182331    0.545353    10.410575    -0.583838    10.104509    -2.445793    4.017471    8.650126    0.758583    8.972895    -12.380271    -32.994762    0.838188    -47.639133    42.903206    -48.861122    -41.044163    -24.787634    -28.874050    -39.251480    -4.397731    7.211288    -2.686237    38.946655    11.252904    70.311531    0.457608    -10.279070    108.070427    5.095199    -10.159114    16.834648    11.645036    -12.759002    -3.426587    -8.368859    4.889481    6.204818    -7.417792    8.872943    22.350910    0.000000    0.000000    0.000000    -9.263159    11.524225    -3.476116    5.353686    11.735485    -0.501587    2.801114    -18.829853    -23.196093    0.000000    0.000000    0.000000    
-1.331892    158.958496    -27.337118    1.150515    -2.315599    -25.567226    0.995972    -2.693340    1.843248    -0.865542    2.134730    0.620780    10.616411    -0.716588    10.042337    -2.659384    3.799481    8.512949    1.131050    8.850297    -12.697154    -33.352322    0.937919    -47.726204    43.171326    -48.887901    -40.894749    -24.736320    -28.916153    -39.099907    -4.400139    6.931849    -2.891557    38.701912    11.175874    70.334389    0.289087    -10.830231    108.008881    5.231460    -10.460562    16.870045    11.644711    -12.751028    -3.411458    -8.366883    4.896822    6.211960    -7.437671    8.843822    22.377153    0.000000    0.000000    0.000000    -9.264075    11.528680    -3.453219    5.359226    11.750051    -0.489112    2.805326    -18.852322    -23.212996    0.000000    0.000000    0.000000    
-1.352657    158.957809    -27.338923    1.149782    -2.318926    -25.567358    1.160648    -2.044840    1.631814    -1.022120    1.054707    0.545062    10.407153    -0.524163    10.110739    -2.446798    4.068276    8.663669    0.616282    9.180996    -12.252576    -33.371330    1.268028    -47.224957    42.779709    -48.940636    -41.620235    -24.697859    -28.890364    -38.957695    -4.350955    7.284444    -2.626748    38.996548    11.216270    70.246231    0.487449    -10.184738    108.084846    5.038453    -10.113860    16.835903    11.646231    -12.745134    -3.406509    -8.352944    4.896746    6.204527    -7.416783    8.873837    22.341183    0.000000    0.000000    0.000000    -9.259335    11.527991    -3.452030    5.367095    11.762552    -0.492415    2.774874    -18.849478    -23.215704    0.000000    0.000000    0.000000    
-1.373884    158.954620    -27.337334    1.150936    -2.324473    -25.565052    1.161246    -2.037965    1.643305    -1.027127    1.072620    0.549118    10.410001    -0.565633    10.111139    -2.446285    4.100714    8.660554    0.595711    9.224702    -12.168117    -33.579655    1.549558    -47.025276    42.768681    -49.001915    -41.903740    -24.704576    -28.886372    -38.837582    -4.341500    7.277422    -2.670748    38.989326    11.237301    70.276924    0.481876    -10.209213    108.094620    5.027308    -10.133262    16.816952    11.650556    -12.735260    -3.410995    -8.359887    4.891538    6.218337    -7.452261    8.841306    22.368040    0.000000    0.000000    0.000000    -9.258533    11.532765    -3.455297    5.368400    11.775710    -0.473964    2.764203    -18.861202    -23.223513    0.000000    0.000000    0.000000    
-1.395483    158.954437    -27.334196    1.150041    -2.336034    -25.563890    1.160692    -2.040454    1.646840    -1.022467    1.107570    0.550569    10.411554    -0.598532    10.125460    -2.461696    4.125176    8.671070    0.567191    9.277338    -12.082744    -33.773239    1.729721    -46.845428    42.615566    -49.034489    -42.253807    -24.724573    -28.880184    -38.668514    -4.346584    7.280454    -2.696744    39.004940    11.238910    70.308075    0.478158    -10.221210    108.092896    5.053316    -10.136233    16.825495    11.649060    -12.722792    -3.407746    -8.351999    4.899525    6.191808    -7.425028    8.864184    22.355400    0.000000    0.000000    0.000000    -9.261058    11.546909    -3.451784    5.381299    11.776950    -0.482204    2.762087    -18.867506    -23.223581    0.000000    0.000000    0.000000    
-1.418741    158.951630    -27.334764    1.145300    -2.336365    -25.563408    1.159406    -2.047752    1.655746    -0.997656    1.134062    0.553379    10.396413    -0.629845    10.129829    -2.475656    4.160861    8.674367    0.524323    9.304782    -12.014234    -33.980339    2.030378    -46.608654    42.609901    -49.099911    -42.546108    -24.397438    -29.023897    -38.360844    -4.369111    7.276183    -2.716256    39.013214    11.249413    70.330101    0.469652    -10.249814    108.090576    5.055930    -10.152985    16.818550    11.661927    -12.717638    -3.419388    -8.355548    4.896389    6.217598    -7.427984    8.862152    22.344526    0.000000    0.000000    0.000000    -9.245129    11.549479    -3.448157    5.369919    11.789433    -0.474217    2.755741    -18.881693    -23.232016    0.000000    0.000000    0.000000    
-1.441372    158.948334    -27.332386    1.145480    -2.342319    -25.559853    1.151809    -2.051708    1.667238    -0.978140    1.146904    0.557199    10.376507    -0.629975    10.132113    -2.468040    4.167093    8.680766    0.483690    9.358706    -11.982661    -34.140018    2.238164    -46.366348    42.521736    -49.096962    -42.822884    -24.325237    -29.000669    -38.203793    -4.370147    7.279159    -2.730773    39.018696    11.252261    70.334251    0.466716    -10.259047    108.087540    5.062598    -10.157643    16.807890    11.665460    -12.713444    -3.427310    -8.357923    4.902946    6.221474    -7.426994    8.862830    22.341455    0.000000    0.000000    0.000000    -9.246407    11.561096    -3.450958    5.386356    11.784492    -0.485124    2.744310    -18.885826    -23.227751    0.000000    0.000000    0.000000    
-1.462142    158.945129    -27.327494    1.146719    -2.349891    -25.555527    1.147821    -2.045552    1.673492    -0.964905    1.151190    0.559267    10.395602    -0.653526    10.140636    -2.515481    4.211867    8.680501    0.443817    9.401140    -11.936730    -34.333923    2.419884    -46.120251    42.390129    -49.073723    -43.137939    -24.321896    -28.928251    -38.059048    -4.366047    7.299302    -2.758367    39.019577    11.251145    70.368652    0.466678    -10.258499    108.081825    5.037521    -10.160425    16.814604    11.666784    -12.701608    -3.427688    -8.357238    4.901944    6.200954    -7.455915    8.841854    22.362103    0.000000    0.000000    0.000000    -9.240738    11.568939    -3.479796    5.373300    11.801621    -0.459311    2.745348    -18.899282    -23.228354    0.000000    0.000000    0.000000    
-1.485278    158.943588    -27.323257    1.147476    -2.349726    -25.551815    1.145196    -2.044354    1.676498    -0.946675    1.147584    0.560034    10.392451    -0.670720    10.155694    -2.525866    4.259713    8.695043    0.410450    9.457103    -11.922355    -34.496071    2.729029    -45.824360    42.534214    -49.131947    -43.247334    -24.336632    -28.923855    -37.939697    -4.359162    7.302514    -2.767354    39.035545    11.243813    70.373474    0.473060    -10.223312    108.081520    5.007138    -10.140386    16.773338    11.673146    -12.694782    -3.434192    -8.358335    4.892570    6.224773    -7.445744    8.849981    22.340855    0.000000    0.000000    0.000000    -9.230784    11.574479    -3.472811    5.372711    11.798816    -0.518026    2.741429    -18.895971    -23.174562    0.000000    0.000000    0.000000    
-1.506070    158.938843    -27.318405    1.152933    -2.352562    -25.544043    1.142588    -2.038959    1.674544    -0.938897    1.137727    0.559243    10.400347    -0.677027    10.169747    -2.546659    4.291603    8.706413    0.354106    9.459109    -11.876389    -34.630257    3.083434    -45.529617    42.645538    -49.194508    -43.339733    -24.400812    -28.926353    -37.835915    -4.348317    7.304250    -2.771885    39.032551    11.255159    70.375023    0.474138    -10.226671    108.081749    5.004863    -10.145666    16.775009    11.669928    -12.693983    -3.427030    -8.358514    4.901381    6.217432    -7.479289    8.804206    22.373768    0.000000    0.000000    0.000000    -9.233522    11.582660    -3.452313    5.380603    11.798340    -0.501398    2.744446    -18.915321    -23.201450    0.000000    0.000000    0.000000    
-1.526960    158.938950    -27.312559    1.158229    -2.357265    -25.539072    1.132975    -2.030133    1.672460    -0.920944    1.127724    0.558355    10.408908    -0.689259    10.186493    -2.570285    4.327549    8.719732    0.317706    9.482028    -11.873636    -34.820614    3.403058    -45.163174    42.746651    -49.250919    -43.501328    -24.438618    -28.908117    -37.716690    -4.337606    7.311036    -2.780796    39.030109    11.259372    70.385376    0.478803    -10.211958    108.082840    4.999416    -10.137577    16.783520    11.669309    -12.689077    -3.431451    -8.357769    4.901175    6.194599    -7.464398    8.832919    22.361029    0.000000    0.000000    0.000000    -9.233253    11.588103    -3.453514    5.377724    11.805375    -0.508597    2.763368    -18.927006    -23.190807    0.000000    0.000000    0.000000    
